<svg width="350" height="350" viewBox="0 0 350 350" fill="none" xmlns="http://www.w3.org/2000/svg">
<path d="M175 0C78.347 0 0 78.347 0 175C0 271.653 78.347 350 175 350C271.653 350 350 271.653 350 175C350 78.3589 271.653 0.0119413 175 0ZM255.258 252.392C252.117 257.55 245.394 259.162 240.259 256.022C199.169 230.909 147.439 225.237 86.5268 239.149C80.6517 240.498 74.8004 236.82 73.463 230.945C72.1136 225.07 75.7796 219.219 81.6667 217.881C148.323 202.656 205.51 209.212 251.639 237.393C256.774 240.558 258.41 247.257 255.258 252.392V252.392ZM276.668 204.758C272.716 211.182 264.309 213.188 257.897 209.248C210.872 180.338 139.152 171.967 83.5176 188.852C76.305 191.037 68.6865 186.965 66.4893 179.765C64.3159 172.552 68.3879 164.945 75.5885 162.748C139.14 143.463 218.156 152.801 272.166 185.998C278.591 189.951 280.621 198.345 276.668 204.758ZM278.507 155.13C222.097 121.634 129.05 118.553 75.1945 134.889C66.549 137.516 57.4019 132.632 54.7868 123.987C52.1716 115.341 57.0437 106.194 65.7011 103.567C127.521 84.8072 230.276 88.4255 295.213 126.972C302.987 131.593 305.542 141.636 300.933 149.398C296.336 157.184 286.269 159.751 278.507 155.13Z" fill="#DEB841"/>
</svg>
